<svg xmlns="http://www.w3.org/2000/svg" width="209.6" height="40" viewBox="50.7 130.9 209.6 40"><path fill="#4E5051" d="M109.4 154.7c-3.2 0-5.2-1.9-5.2-6s2-6 5.2-6c1.2 0 2.4.3 3.4 1l2-3.8c-1.7-.9-3.7-1.4-5.8-1.4-6.1 0-10.4 3.7-10.4 10.2 0 6.5 4.4 10.2 10.4 10.2 1.7 0 3.4-.4 5-1l-2-3.8c-.8.4-1.7.6-2.6.6zm87.5-6.6c.8 0 1.6.3 2.1.9l1.2-3.3c-1.2-.8-2.7-1.1-4.3-1.1-4.2 0-7.6 2.6-7.6 7.1s3.4 7.1 7.6 7.1c1.6 0 3.1-.4 4.3-1.1l-1.2-3.3c-.5.5-1.3.9-2.1.9-1.7 0-3.2-1-3.2-3.6.2-2.6 1.5-3.6 3.2-3.6zm-74.6-3.6c-4.2 0-7.6 2.6-7.6 7.1s3.4 7.1 7.6 7.1 7.6-2.6 7.6-7.1c0-4.4-3.5-7.1-7.6-7.1zm0 11.1c-1.2 0-2.2-1.4-2.2-4s1-4 2.2-4c1.2 0 2.2 1.4 2.2 4-.1 2.6-1 4-2.2 4zm104.5-11.1c-4.2 0-7.6 2.6-7.6 7.1s3.4 7.1 7.6 7.1 7.6-2.6 7.6-7.1c0-4.4-3.4-7.1-7.6-7.1zm0 11.1c-1.2 0-2.2-1.4-2.2-4s1-4 2.2-4c1.2 0 2.2 1.4 2.2 4s-.9 4-2.2 4zm16.8-11.1c-4.2 0-7.6 2.6-7.6 7.1s3.4 7.1 7.6 7.1 7.6-2.6 7.6-7.1c0-4.4-3.4-7.1-7.6-7.1zm0 11.1c-1.2 0-2.2-1.4-2.2-4s1-4 2.2-4c1.2 0 2.2 1.4 2.2 4s-1 4-2.2 4zm-85.8-.2c-1.3 0-2.1-.8-2.5-2.2 4.5.1 7.3-1.7 7.3-4.4 0-2.6-2.4-4.3-5.3-4.3-4.2 0-7.6 2.6-7.6 7.1s3 7.1 7.1 7.1c4 0 6.3-3 6.3-3l-1.4-2.3c.1.1-1.9 2-3.9 2zm-.5-7.8c.8 0 1.2.7 1.2 1.3 0 1.2-.8 1.9-3.3 2.1.1-2.2 1-3.4 2.1-3.4zm-10.9 5.8V138h-5.2v8.7c-1-1.4-2.5-2.2-4.2-2.2-3.1 0-5.6 2.6-5.6 7.1s2.5 7.1 5.6 7.1c1.9 0 3.5-1 4.5-2.7.7 1.9 2.3 2.7 4 2.7 1.8 0 2.6-.5 2.6-.5l.3-3.7c.2 0-2 1.3-2-1.1zm-7.3 2c-1.2 0-2.2-1.4-2.2-3.8s1-3.8 2.2-3.8c1.2 0 2.2 1.4 2.2 3.8 0 2.5-1 3.8-2.2 3.8zm76.8-2v-5.2c0-2.3-.8-3.8-3.2-3.8-2 0-3.7 1-4.7 2.7V138h-5.2v20.3h5.2v-4.9c0-4.5 1.4-5.7 2.2-5.7.5 0 .8.4.8 1.3v4.8c0 3.5 2 4.8 4.3 4.8 1.8 0 2.6-.5 2.6-.5l.3-3.7c0 .1-2.3 1.2-2.3-1zm42.3 0V138H253v16c0 3.5 2.1 4.8 4.3 4.8 1.8 0 2.6-.5 2.6-.5l.3-3.7c.1-.1-2 1.2-2-1.2zm-76.8-7c-3.2-1.2-3.8-1.4-3.8-2.5 0-1 .7-1.6 1.7-1.6 2.5 0 5.7 1.7 5.7 1.7l1.4-3.4s-2.3-2.1-6.8-2.1c-4.8 0-7.3 2.5-7.3 5.9 0 2.5 1.2 4.7 5.2 6 3.1 1 3.7 1.7 3.7 2.7 0 1.2-.9 1.8-2.3 1.8-2.9 0-6.3-2.2-6.3-2.2l-1.7 3.4s3.4 2.7 8 2.7c5.1 0 7.8-2.5 7.8-6.3-.1-2.7-.8-4.4-5.3-6.1z"/><path fill="#4CADC1" d="M71.6 139.7v4.9l5.6 5.2-5.6 5.2v4.9l10.7-10-10.7-10.2zM67.5 155l-5.6-5.2 5.6-5.2v-4.9l-10.7 10.1 10.7 10V155zm2.1-24.1c-10.4 0-18.9 8.5-18.9 18.9s8.5 18.9 18.9 18.9 18.9-8.5 18.9-18.9-8.5-18.9-18.9-18.9zm0 34.4c-8.6 0-15.5-6.9-15.5-15.5s6.9-15.5 15.5-15.5 15.5 6.9 15.5 15.5c0 8.5-7 15.5-15.5 15.5z"/><path fill="#4E5051" d="M170.7 168.4c0-1 .7-1.4 1.7-1.4.4 0 .8.1 1 .2v-.1c0-.5-.3-.8-.9-.8-.5 0-.8.1-1.2.2l-.3-1c.5-.2 1-.3 1.6-.3s1.2.2 1.4.5c.3.3.5.8.5 1.4v2.5h-1.2v-.5c-.3.3-.7.5-1.3.5-.7.1-1.3-.4-1.3-1.2zm2.7-.3v-.2c-.2-.1-.5-.1-.8-.1-.5 0-.8.2-.8.6 0 .3.3.5.7.5.6-.1.9-.4.9-.8zm4.8-4.1h2.3c1.3 0 2.1.8 2.1 1.9 0 1.3-1 2-2.3 2h-1v1.6h-1.2l.1-5.5zm2.2 2.8c.6 0 1-.3 1-.8s-.4-.8-1-.8h-1v1.7l1-.1zm3.1-3h1.2v5.8h-1.2v-5.8zm2.3 4.3v-2.7h1.2v2.4c0 .5.3.9.8.9s.8-.3.8-.9v-2.4h1.2v4.3h-1.2v-.7c-.3.3-.6.7-1.2.7-1 0-1.6-.7-1.6-1.6zm5-2.8h1.2v.9c.3-.6.6-1 1.4-1v1.3h-.1c-.8 0-1.3.5-1.3 1.5v1.6h-1.2v-4.3zm2.9 3.1c0-1 .7-1.4 1.7-1.4.4 0 .8.1 1 .2v-.1c0-.5-.3-.8-.9-.8-.5 0-.8.1-1.2.2l-.3-1c.5-.2 1-.3 1.6-.3s1.2.2 1.4.5c.3.3.5.8.5 1.4v2.5h-1.2v-.5c-.3.3-.7.5-1.3.5-.6.1-1.3-.4-1.3-1.2zm2.8-.3v-.2c-.2-.1-.5-.1-.8-.1-.5 0-.8.2-.8.6 0 .3.3.5.7.5.5-.1.9-.4.9-.8zm2.2-4.3h1.2v5.8h-1.2v-5.8zm2.1 5.2l.5-.8c.5.3 1 .5 1.4.5.3 0 .5-.1.5-.3 0-.3-.4-.3-.9-.5-.6-.2-1.3-.5-1.3-1.3 0-.9.7-1.4 1.6-1.4.5 0 1.2.2 1.6.5l-.5.8c-.4-.3-.8-.4-1.2-.4-.3 0-.5.1-.5.3 0 .2.4.3.9.5.6.2 1.3.5 1.3 1.3 0 1-.7 1.4-1.6 1.4-.6.1-1.3-.1-1.8-.6zm4.4-5.2h1.3v1.1h-1.3v-1.1zm0 1.5h1.2v4.3h-1.2v-4.3zm2.4 5.1l.4-.9c.4.3.9.4 1.4.4.8 0 1.2-.4 1.2-1.2v-.2c-.3.4-.8.7-1.4.7-1 0-1.9-.8-1.9-2 0-1.3.9-2 1.9-2 .7 0 1 .3 1.4.6v-.5h1.2v3.3c0 .8-.2 1.3-.5 1.7-.4.4-1 .5-1.9.5-.6.1-1.3 0-1.8-.4zm3.1-3.1c0-.6-.5-1-1-1-.6 0-1 .4-1 1s.5 1 1 1c.5-.1 1-.5 1-1zm2.3-3.5h1.2v2.1c.3-.3.6-.7 1.2-.7.9 0 1.4.6 1.4 1.6v2.7h-1.2v-2.4c0-.5-.3-.9-.8-.9s-.8.3-.8.9v2.4h-1.2l.2-5.7zm5.2 4.6v-2.1h-.5v-1h.5v-1.1h1.2v1.1h1v1h-1v1.9c0 .3.1.4.4.4l.6-.1v1c-.3.1-.5.3-1 .3-.7-.1-1.2-.4-1.2-1.4zm5.3-.9c0-1.2 1-2.3 2.3-2.3.8 0 1.3.3 1.7.7l-.8.8c-.3-.3-.5-.5-1-.5-.6 0-1 .5-1 1.2s.4 1.2 1.1 1.2c.4 0 .7-.2 1-.5l.7.7c-.4.5-.9.8-1.8.8-1.3.1-2.2-.9-2.2-2.1zm4.4 0c0-1.2 1-2.3 2.3-2.3 1.3 0 2.3 1 2.3 2.2 0 1.2-1 2.3-2.3 2.3-1.3 0-2.3-1-2.3-2.2zm3.5 0c0-.6-.5-1.2-1.1-1.2-.7 0-1.1.5-1.1 1.2 0 .6.5 1.2 1.1 1.2.7-.1 1.1-.6 1.1-1.2zm2-2.2h1.2v.6c.3-.3.6-.7 1.2-.7.5 0 1 .3 1.2.7.3-.4.8-.7 1.4-.7.9 0 1.4.5 1.4 1.6v2.8h-1.2v-2.4c0-.5-.3-.9-.7-.9-.5 0-.8.3-.8.9v2.4h-1.2v-2.4c0-.5-.3-.9-.7-.9-.5 0-.8.3-.8.9v2.4h-1.2v-4.3zm7.7 0h1.2v.6c.3-.4.7-.7 1.3-.7 1 0 1.9.8 1.9 2.2 0 1.4-1 2.2-1.9 2.2-.6 0-1-.3-1.3-.6v1.9h-1.2v-5.6zm3.3 2.2c0-.8-.5-1.2-1-1.2s-1 .5-1 1.2.5 1.2 1 1.2 1-.5 1-1.2zm1.8.9c0-1 .7-1.4 1.7-1.4.4 0 .8.1 1 .2v-.1c0-.5-.3-.8-.9-.8-.5 0-.8.1-1.2.2l-.3-1c.5-.2 1-.3 1.6-.3s1.2.2 1.4.5c.3.3.5.8.5 1.4v2.5h-1v-.5c-.3.3-.7.5-1.3.5-.9.1-1.5-.4-1.5-1.2zm2.8-.3v-.2c-.2-.1-.5-.1-.8-.1-.5 0-.8.2-.8.6 0 .3.3.5.7.5.5-.1.9-.4.9-.8zm2.2-2.8h1.2v.6c.3-.3.6-.7 1.2-.7.9 0 1.4.6 1.4 1.6v2.7h-1.2v-2.4c0-.5-.3-.9-.8-.9s-.8.3-.8.9v2.4H251l.2-4.2zm4.8 5.3l.4-.9c.1.1.3.1.5.1s.3-.1.4-.3l-1.6-4.3h1.3l1 3 1-3h1.2l-1.6 4.4c-.3.9-.7 1.2-1.4 1.2-.5.1-.9 0-1.2-.2z"/></svg>