<svg id="Layer_1" data-name="Layer 1" xmlns="http://www.w3.org/2000/svg" viewBox="0 0 826 153.36"><defs><style>.cls-1{fill:#03363d;}</style></defs><title>golion-z-sourcefile-algae</title><path class="cls-1" d="M513.53,120.15a31.34,31.34,0,0,0,22.27-8.65l11,11.91c-7.3,7.49-17.4,13.07-33.12,13.07-26.95,0-44.35-17.86-44.35-42.07,0-24,18.34-42.07,41.91-42.07,26.76,0,41.91,20.36,40.61,48.6H488.65c2.24,11.72,10.48,19.21,24.88,19.21M532.8,87.49c-1.68-10.95-8.23-19-21.33-19-12.16,0-20.58,6.91-22.83,19H532.8Z"/><polygon class="cls-1" points="98.27 119.27 146.94 69.82 99.41 69.82 99.41 54.31 169.5 54.31 169.5 70.14 120.82 119.59 170.15 119.59 170.15 135.1 98.27 135.1 98.27 119.27"/><path class="cls-1" d="M224.8,120.15a31.34,31.34,0,0,0,22.27-8.65l11,11.91c-7.3,7.49-17.4,13.07-33.12,13.07-26.95,0-44.35-17.86-44.35-42.07,0-24,18.34-42.07,41.91-42.07,26.76,0,41.91,20.36,40.61,48.6H199.92c2.24,11.72,10.48,19.21,24.88,19.21m19.27-32.65c-1.68-10.95-8.23-19-21.33-19-12.16,0-20.58,6.91-22.83,19h44.16Z"/><path class="cls-1" d="M368.26,94.46c0-25.86,19.31-42,40.56-42,10.71,0,20.94,4.69,26.94,12.13V16.89H453v118H435.76V123.71c-6.16,7.92-16.39,12.77-27.1,12.77-20.6,0-40.4-16.32-40.4-42m68.48-.16c0-14.38-10.87-26.18-25.64-26.18-14.44,0-25.64,11.47-25.64,26.18s11.19,26.34,25.64,26.34c14.77,0,25.64-11.8,25.64-26.34"/><path class="cls-1" d="M563.08,117.73l15.57-8.08a23.12,23.12,0,0,0,20.77,11.79c9.74,0,14.77-5,14.77-10.66,0-6.46-9.41-7.92-19.63-10-13.8-2.91-28.07-7.44-28.07-24.08,0-12.77,12.17-24.57,31.32-24.4,15.09,0,26.29,6,32.62,15.67L616,75.87c-3.73-5.66-10.06-9.21-18.17-9.21-9.25,0-14,4.53-14,9.7,0,5.82,7.46,7.43,19.15,10,13.3,2.91,28.39,7.27,28.39,24.08,0,11.15-9.73,26.18-32.78,26-16.87,0-28.72-6.79-35.53-18.75"/><polygon class="cls-1" points="678.11 98.98 664.47 113.85 664.47 134.86 647.28 134.86 647.28 16.89 664.47 16.89 664.47 94.13 700.98 54.05 721.92 54.05 690.27 88.64 722.73 134.86 703.26 134.86 678.11 98.98"/><path class="cls-1" d="M316.28,52.42c-20.45,0-37.57,13.25-37.57,35.23v47.2h17.53v-45c0-13.25,7.62-21.18,20.6-21.18s19.48,7.93,19.48,21.18v45h17.53V87.65c0-22-17.12-35.23-37.57-35.23"/><path class="cls-1" d="M717.06,43.59a6.25,6.25,0,1,1,0,8.85A6.25,6.25,0,0,1,717.06,43.59Zm7.76,7.76a4.72,4.72,0,1,0-6.75.06A4.76,4.76,0,0,0,724.82,51.35ZM722,44l1.89,1.89c1.18,1.18,1.16,2.6.37,3.39a2,2,0,0,1-2.36.47l-0.57,2.41-1.25-1.25L721,47.58l0.51,0.51a1,1,0,0,0,1.52.11,1,1,0,0,0-.19-1.46L722.19,46l-3.49,3.49-1.11-1.11Z"/></svg>